<?xml version="1.0" standalone="no"?>
<!DOCTYPE svg PUBLIC "-//W3C//DTD SVG 20010904//EN"
 "http://www.w3.org/TR/2001/REC-SVG-20010904/DTD/svg10.dtd">
<svg version="1.0" xmlns="http://www.w3.org/2000/svg"
 width="144.000000pt" height="144.000000pt" viewBox="0 0 144.000000 144.000000"
 preserveAspectRatio="xMidYMid meet">
<metadata>
Created by potrace 1.11, written by Peter Selinger 2001-2013
</metadata>
<g transform="translate(0.000000,144.000000) scale(0.100000,-0.100000)"
fill="#000000" stroke="none">
<path d="M595 1248 c-120 -236 -157 -320 -206 -468 -34 -104 -38 -123 -35
-202 3 -75 8 -98 35 -152 41 -85 127 -163 209 -193 66 -24 171 -28 227 -9 42
15 54 26 32 27 -91 7 -254 103 -342 201 -43 48 -105 142 -105 161 0 4 29 -9
65 -28 143 -79 362 -149 502 -161 l71 -6 16 48 c41 126 14 257 -104 494 -51
103 -250 462 -264 478 -2 1 -47 -84 -101 -190z"/>
<path d="M939 1108 c71 -136 83 -154 137 -196 116 -90 186 -175 245 -298 16
-35 31 -64 32 -64 5 0 0 156 -6 192 -34 195 -185 388 -372 473 -126 58 -125
62 -36 -107z"/>
<path d="M460 1226 c-30 -12 -74 -34 -96 -49 -49 -31 -151 -123 -165 -149 -9
-17 -5 -16 28 5 58 36 157 73 219 81 12 1 31 25 51 62 47 85 47 85 -37 50z"/>
<path d="M327 1014 c-1 -1 -15 -4 -32 -7 -140 -24 -138 -23 -189 -167 l-27
-75 33 36 c58 64 142 106 223 112 37 2 42 6 62 47 12 25 22 49 23 53 0 7 -86
8 -93 1z"/>
<path d="M75 628 c7 -176 67 -311 195 -439 138 -139 279 -194 472 -185 136 7
248 44 353 116 42 29 135 119 135 131 0 4 -26 -8 -57 -27 -131 -79 -284 -98
-472 -59 -92 18 -237 85 -316 145 -114 86 -226 225 -276 342 -13 32 -27 58
-30 58 -4 0 -5 -37 -4 -82z"/>
<path d="M500 522 c0 -12 92 -102 135 -132 186 -128 489 -175 611 -95 19 12
66 117 88 195 6 19 2 17 -14 -10 -81 -133 -326 -153 -609 -50 -47 16 -113 46
-148 65 -35 19 -63 31 -63 27z"/>
</g>
</svg>
